<svg width="360" height="225" viewBox="0 0 360 225" fill="none" xmlns="http://www.w3.org/2000/svg">
<g clip-path="url(#clip0_0_3)">
<rect width="360" height="224.799" rx="20" fill="white"/>
<path d="M138.827 -0.410217H-0.434341V140.868H138.827V-0.410217Z" fill="#F39200" fill-opacity="0.3"/>
<path d="M361.647 -0.410217H138.827V225.637H361.647V-0.410217Z" fill="#D90912" fill-opacity="0.3"/>
<path d="M138.827 169.128H83.1245V225.637H138.827V169.128Z" fill="#388838" fill-opacity="0.3"/>
<path d="M110.981 140.847H83.1245V169.107H110.981V140.847Z" fill="#85C8B5" fill-opacity="0.3"/>
<path d="M138.827 140.847H110.981V169.107H138.827V140.847Z" fill="#44A49F" fill-opacity="0.3"/>
<path d="M83.1245 140.878H-0.434341V225.647H83.1245V140.878Z" fill="#004C69" fill-opacity="0.3"/>
<path d="M82.4235 169.097C82.3872 165.687 82.9514 162.298 84.0896 159.089C85.6991 154.485 88.4207 150.363 92.0057 147.1C95.5906 143.838 99.9245 141.539 104.611 140.414C112.069 138.628 119.92 139.883 126.475 143.909C133.03 147.936 137.764 154.412 139.66 161.944C143.094 179.166 136.358 200.624 120.002 214.723C111.375 222.031 100.867 226.68 89.7178 228.121C86.7963 228.484 83.8516 228.618 80.9098 228.523C78.0653 228.327 75.3629 228.523 72.3355 227.987C66.3208 227.312 60.3947 225.985 54.6586 224.029C42.4271 219.86 31.2644 212.98 21.9809 203.888C12.6974 194.796 5.52618 183.721 0.98791 171.467C-3.80271 158.524 -5.62324 144.644 -4.33546 130.881C-4.26605 127.424 -3.92635 123.978 -3.31955 120.575C-2.78112 117.112 -2.46617 113.536 -1.71439 110.114C-0.0686116 103.333 1.42474 96.4583 4.02548 89.8829C8.68206 76.4564 15.3614 63.8431 23.8257 52.4917C32.2202 40.8769 42.3246 30.6401 53.7849 22.1398C76.6581 4.76819 104.123 -5.2801 132.66 -6.71773L137.933 -7.07845C140.361 -7.17121 141.489 -6.996 143.327 -6.96508L153.355 -6.57344C156.707 -6.37762 159.958 -6.47038 163.371 -6.03752L173.642 -4.54311L183.862 -2.95594C187.225 -2.36849 190.435 -1.36878 193.717 -0.606116C200.188 1.16656 206.802 2.35178 212.938 4.90773C237.98 13.5547 260.767 26.2623 279.399 41.9278C298.031 57.5933 313.818 74.5575 325.379 92.4285C336.074 108.46 344.593 125.88 350.706 144.217C352.06 148.299 353.354 152.243 354.587 156.049C355.724 159.893 356.375 163.727 357.238 167.324C358.853 174.539 360.286 181.217 360.672 187.37C361.281 193.481 362.043 198.903 362.307 203.633C362.307 208.395 362.307 212.435 362.368 215.712C362.368 222.236 362.368 225.719 362.368 225.719H360.987C360.987 225.719 360.631 222.277 359.971 215.815C359.656 212.6 359.28 208.601 358.833 203.983C358.183 199.356 356.984 194.09 355.897 188.194C355.013 182.258 353.052 175.909 350.96 169.014C349.944 165.572 349.07 161.913 347.739 158.265C346.408 154.617 344.844 150.937 343.31 147.072C340.618 139.219 336.198 131.613 332.033 123.316C330.103 119.101 327.126 115.35 324.637 111.196C321.935 107.187 319.69 102.745 316.409 98.8287C304.847 82.2459 289.304 66.6423 271.261 52.6051C266.568 49.3277 262.118 45.5762 257.039 42.5565L241.8 33.2809L225.464 25.3863C219.968 22.7273 214.015 21.037 208.193 18.7697C202.535 16.2652 196.439 15.08 190.344 13.3383C187.296 12.5756 184.248 11.5656 181.201 10.9884L171.925 9.48372L162.589 7.93778C159.43 7.4843 155.996 7.44308 152.704 7.18542L142.698 6.54643C141.194 6.48459 138.979 6.23724 138.055 6.31969L133.25 6.51551C107.065 7.20582 81.6818 15.8194 60.3579 31.2505C49.5959 38.9157 40.0631 48.2182 32.0952 58.8301C23.9698 69.2373 17.4981 80.8692 12.9147 93.3046C10.3546 99.3852 8.85106 105.785 7.19512 112.103C6.43319 115.267 6.11826 118.442 5.54935 121.595C4.9052 124.804 4.53137 128.062 4.43187 131.335C2.93229 143.926 4.32307 156.698 8.49552 168.654C16.4806 192.214 35.5899 210.075 56.7615 217.753C61.9595 219.676 67.3432 221.037 72.8231 221.813C75.4137 222.39 78.4309 222.287 81.1739 222.555C83.7984 222.705 86.4303 222.653 89.0472 222.401C99.2178 221.341 108.877 217.35 116.883 210.899C132.234 198.315 138.979 178.609 136.287 162.758C135.456 159.122 133.882 155.702 131.667 152.721C129.451 149.741 126.644 147.265 123.426 145.454C120.074 143.596 116.368 142.488 112.558 142.206C108.748 141.924 104.922 142.474 101.34 143.819C97.757 145.164 94.5004 147.273 91.7893 150.003C89.0782 152.733 86.9757 156.021 85.6236 159.646C84.7668 161.879 84.2098 164.219 83.9677 166.603C83.8661 168.283 83.8153 169.148 83.8153 169.148L82.4235 169.097Z" fill="white"/>
<path d="M130.507 169.159C130.507 173.976 129.098 178.685 126.46 182.69C123.822 186.695 120.072 189.817 115.685 191.66C111.298 193.503 106.47 193.984 101.813 193.044C97.1565 192.103 92.879 189.783 89.5221 186.376C86.1652 182.969 83.8797 178.628 82.9546 173.904C82.0295 169.179 82.5063 164.282 84.3248 159.832C86.1433 155.382 89.2219 151.579 93.171 148.904C97.1201 146.23 101.762 144.803 106.511 144.805C112.876 144.808 118.979 147.375 123.479 151.942C127.979 156.509 130.507 162.701 130.507 169.159Z" fill="white"/>
<g filter="url(#filter0_d_0_3)">
<path d="M76.6406 78H78.8203V93.5391L78.6328 96H76.6406V78ZM87.3867 89.5547V89.8008C87.3867 90.7227 87.2773 91.5781 87.0586 92.3672C86.8398 93.1484 86.5195 93.8281 86.0977 94.4062C85.6758 94.9844 85.1602 95.4336 84.5508 95.7539C83.9414 96.0742 83.2422 96.2344 82.4531 96.2344C81.6484 96.2344 80.9414 96.0977 80.332 95.8242C79.7305 95.543 79.2227 95.1406 78.8086 94.6172C78.3945 94.0938 78.0625 93.4609 77.8125 92.7188C77.5703 91.9766 77.4023 91.1406 77.3086 90.2109V89.1328C77.4023 88.1953 77.5703 87.3555 77.8125 86.6133C78.0625 85.8711 78.3945 85.2383 78.8086 84.7148C79.2227 84.1836 79.7305 83.7812 80.332 83.5078C80.9336 83.2266 81.6328 83.0859 82.4297 83.0859C83.2266 83.0859 83.9336 83.2422 84.5508 83.5547C85.168 83.8594 85.6836 84.2969 86.0977 84.8672C86.5195 85.4375 86.8398 86.1211 87.0586 86.918C87.2773 87.707 87.3867 88.5859 87.3867 89.5547ZM85.207 89.8008V89.5547C85.207 88.9219 85.1484 88.3281 85.0312 87.7734C84.9141 87.2109 84.7266 86.7188 84.4688 86.2969C84.2109 85.8672 83.8711 85.5312 83.4492 85.2891C83.0273 85.0391 82.5078 84.9141 81.8906 84.9141C81.3438 84.9141 80.8672 85.0078 80.4609 85.1953C80.0625 85.3828 79.7227 85.6367 79.4414 85.957C79.1602 86.2695 78.9297 86.6289 78.75 87.0352C78.5781 87.4336 78.4492 87.8477 78.3633 88.2773V91.1016C78.4883 91.6484 78.6914 92.1758 78.9727 92.6836C79.2617 93.1836 79.6445 93.5938 80.1211 93.9141C80.6055 94.2344 81.2031 94.3945 81.9141 94.3945C82.5 94.3945 83 94.2773 83.4141 94.043C83.8359 93.8008 84.1758 93.4688 84.4336 93.0469C84.6992 92.625 84.8945 92.1367 85.0195 91.582C85.1445 91.0273 85.207 90.4336 85.207 89.8008ZM97.6055 93.832V87.3047C97.6055 86.8047 97.5039 86.3711 97.3008 86.0039C97.1055 85.6289 96.8086 85.3398 96.4102 85.1367C96.0117 84.9336 95.5195 84.832 94.9336 84.832C94.3867 84.832 93.9062 84.9258 93.4922 85.1133C93.0859 85.3008 92.7656 85.5469 92.5312 85.8516C92.3047 86.1562 92.1914 86.4844 92.1914 86.8359H90.0234C90.0234 86.3828 90.1406 85.9336 90.375 85.4883C90.6094 85.043 90.9453 84.6406 91.3828 84.2812C91.8281 83.9141 92.3594 83.625 92.9766 83.4141C93.6016 83.1953 94.2969 83.0859 95.0625 83.0859C95.9844 83.0859 96.7969 83.2422 97.5 83.5547C98.2109 83.8672 98.7656 84.3398 99.1641 84.9727C99.5703 85.5977 99.7734 86.3828 99.7734 87.3281V93.2344C99.7734 93.6562 99.8086 94.1055 99.8789 94.582C99.957 95.0586 100.07 95.4688 100.219 95.8125V96H97.957C97.8477 95.75 97.7617 95.418 97.6992 95.0039C97.6367 94.582 97.6055 94.1914 97.6055 93.832ZM97.9805 88.3125L98.0039 89.8359H95.8125C95.1953 89.8359 94.6445 89.8867 94.1602 89.9883C93.6758 90.082 93.2695 90.2266 92.9414 90.4219C92.6133 90.6172 92.3633 90.8633 92.1914 91.1602C92.0195 91.4492 91.9336 91.7891 91.9336 92.1797C91.9336 92.5781 92.0234 92.9414 92.2031 93.2695C92.3828 93.5977 92.6523 93.8594 93.0117 94.0547C93.3789 94.2422 93.8281 94.3359 94.3594 94.3359C95.0234 94.3359 95.6094 94.1953 96.1172 93.9141C96.625 93.6328 97.0273 93.2891 97.3242 92.8828C97.6289 92.4766 97.793 92.082 97.8164 91.6992L98.7422 92.7422C98.6875 93.0703 98.5391 93.4336 98.2969 93.832C98.0547 94.2305 97.7305 94.6133 97.3242 94.9805C96.9258 95.3398 96.4492 95.6406 95.8945 95.8828C95.3477 96.1172 94.7305 96.2344 94.043 96.2344C93.1836 96.2344 92.4297 96.0664 91.7812 95.7305C91.1406 95.3945 90.6406 94.9453 90.2812 94.3828C89.9297 93.8125 89.7539 93.1758 89.7539 92.4727C89.7539 91.793 89.8867 91.1953 90.1523 90.6797C90.418 90.1562 90.8008 89.7227 91.3008 89.3789C91.8008 89.0273 92.4023 88.7617 93.1055 88.582C93.8086 88.4023 94.5938 88.3125 95.4609 88.3125H97.9805ZM105.352 86.0273V96H103.184V83.3203H105.234L105.352 86.0273ZM104.836 89.1797L103.934 89.1445C103.941 88.2773 104.07 87.4766 104.32 86.7422C104.57 86 104.922 85.3555 105.375 84.8086C105.828 84.2617 106.367 83.8398 106.992 83.543C107.625 83.2383 108.324 83.0859 109.09 83.0859C109.715 83.0859 110.277 83.1719 110.777 83.3438C111.277 83.5078 111.703 83.7734 112.055 84.1406C112.414 84.5078 112.688 84.9844 112.875 85.5703C113.062 86.1484 113.156 86.8555 113.156 87.6914V96H110.977V87.668C110.977 87.0039 110.879 86.4727 110.684 86.0742C110.488 85.668 110.203 85.375 109.828 85.1953C109.453 85.0078 108.992 84.9141 108.445 84.9141C107.906 84.9141 107.414 85.0273 106.969 85.2539C106.531 85.4805 106.152 85.793 105.832 86.1914C105.52 86.5898 105.273 87.0469 105.094 87.5625C104.922 88.0703 104.836 88.6094 104.836 89.1797ZM118.629 78V96H116.449V78H118.629ZM126.375 83.3203L120.844 89.2383L117.75 92.4492L117.574 90.1406L119.789 87.4922L123.727 83.3203H126.375ZM124.395 96L119.871 89.9531L120.996 88.0195L126.949 96H124.395Z" fill="black"/>
<path d="M51.5345 68.4172L36.4429 45.6408V68.4203H26.9774V35.876H26.0886C22.2431 35.876 20.4685 38.2945 20.4685 41.0849C20.4685 42.9774 21.7111 44.5162 24.0177 45.6408L19.5797 52.4459C17.1068 51.7461 14.9304 50.2574 13.3815 48.2065C11.8327 46.1557 10.9965 43.6549 11 41.0849C11 31.5559 18.6335 27 26.6207 27H36.4429L51.5345 48.2065V27H61V68.4172H51.5345Z" fill="black"/>
<path d="M77.9902 68.4883C75.8906 68.4883 74.0107 68.1546 72.3506 67.4873C70.6904 66.82 69.2826 65.9004 68.127 64.7285C66.9876 63.5404 66.1169 62.1732 65.5146 60.627C64.9124 59.0807 64.6113 57.4287 64.6113 55.6709V54.7432C64.6113 52.7738 64.888 50.959 65.4414 49.2988C65.9948 47.6387 66.8005 46.1982 67.8584 44.9775C68.9326 43.7406 70.251 42.7884 71.8135 42.1211C73.376 41.4375 75.1582 41.0957 77.1602 41.0957C79.0319 41.0957 80.7002 41.4049 82.165 42.0234C83.6299 42.6257 84.8669 43.4964 85.876 44.6357C86.8851 45.7588 87.6501 47.1178 88.1709 48.7129C88.708 50.2917 88.9766 52.0658 88.9766 54.0352V57.1602H67.6875V52.2529H81.5059V51.667C81.5059 50.7393 81.335 49.9255 80.9932 49.2256C80.6676 48.5257 80.1794 47.9886 79.5283 47.6143C78.8936 47.2236 78.0879 47.0283 77.1113 47.0283C76.1836 47.0283 75.4105 47.2236 74.792 47.6143C74.1735 48.0049 73.6771 48.5583 73.3027 49.2744C72.9447 49.9743 72.6842 50.7962 72.5215 51.7402C72.3587 52.668 72.2773 53.6689 72.2773 54.7432V55.6709C72.2773 56.6963 72.4157 57.6322 72.6924 58.4785C72.9691 59.3249 73.376 60.0492 73.9131 60.6514C74.4502 61.2536 75.1012 61.7256 75.8662 62.0674C76.6312 62.4092 77.502 62.5801 78.4785 62.5801C79.6829 62.5801 80.8304 62.3522 81.9209 61.8965C83.0114 61.4245 83.9554 60.6921 84.7529 59.6992L88.3174 63.7764C87.7803 64.5576 87.0234 65.3145 86.0469 66.0469C85.0866 66.763 83.931 67.349 82.5801 67.8047C81.2292 68.2604 79.6992 68.4883 77.9902 68.4883ZM100.476 60.6514L105.651 41.584H110.461L108.825 50.0801L103.649 68H99.7188L100.476 60.6514ZM98.1074 41.584L101.574 60.5781L101.94 68H97.2529L90.7588 41.584H98.1074ZM115.148 60.2119L118.591 41.584H125.939L119.494 68H114.807L115.148 60.2119ZM111.047 41.584L116.271 60.5537L117.028 68H113.049L107.922 50.1045L106.359 41.584H111.047Z" fill="black"/>
</g>
</g>
<defs>
<filter id="filter0_d_0_3" x="7" y="27" width="123.949" height="77.2344" filterUnits="userSpaceOnUse" color-interpolation-filters="sRGB">
<feFlood flood-opacity="0" result="BackgroundImageFix"/>
<feColorMatrix in="SourceAlpha" type="matrix" values="0 0 0 0 0 0 0 0 0 0 0 0 0 0 0 0 0 0 127 0" result="hardAlpha"/>
<feOffset dy="4"/>
<feGaussianBlur stdDeviation="2"/>
<feComposite in2="hardAlpha" operator="out"/>
<feColorMatrix type="matrix" values="0 0 0 0 0 0 0 0 0 0 0 0 0 0 0 0 0 0 0.25 0"/>
<feBlend mode="normal" in2="BackgroundImageFix" result="effect1_dropShadow_0_3"/>
<feBlend mode="normal" in="SourceGraphic" in2="effect1_dropShadow_0_3" result="shape"/>
</filter>
<clipPath id="clip0_0_3">
<rect width="360" height="224.799" rx="20" fill="white"/>
</clipPath>
</defs>
</svg>
