<svg width="360" height="225" viewBox="0 0 360 225" fill="none" xmlns="http://www.w3.org/2000/svg">
<g clip-path="url(#clip0_7_2)">
<rect width="360" height="224.799" fill="white"/>
<path d="M138.827 -0.410217H-0.434326V140.868H138.827V-0.410217Z" fill="#F39200" fill-opacity="0.3"/>
<path d="M361.647 -0.410217H138.827V225.637H361.647V-0.410217Z" fill="#D90912" fill-opacity="0.3"/>
<path d="M138.827 169.128H83.1245V225.637H138.827V169.128Z" fill="#388838" fill-opacity="0.3"/>
<path d="M110.981 140.847H83.1245V169.107H110.981V140.847Z" fill="#85C8B5" fill-opacity="0.3"/>
<path d="M138.827 140.847H110.981V169.107H138.827V140.847Z" fill="#44A49F" fill-opacity="0.3"/>
<path d="M83.1245 140.878H-0.434326V225.647H83.1245V140.878Z" fill="#004C69" fill-opacity="0.3"/>
<path d="M82.4235 169.097C82.3872 165.687 82.9514 162.298 84.0896 159.089C85.6991 154.485 88.4208 150.363 92.0057 147.1C95.5906 143.838 99.9245 141.539 104.611 140.414C112.069 138.628 119.92 139.883 126.475 143.909C133.03 147.936 137.764 154.412 139.66 161.944C143.094 179.166 136.358 200.624 120.002 214.723C111.375 222.031 100.867 226.68 89.7178 228.121C86.7963 228.484 83.8516 228.618 80.9098 228.523C78.0653 228.327 75.363 228.523 72.3355 227.987C66.3209 227.312 60.3947 225.985 54.6586 224.029C42.4272 219.86 31.2644 212.98 21.981 203.888C12.6975 194.796 5.52621 183.721 0.98794 171.467C-3.80268 158.524 -5.62321 144.644 -4.33543 130.881C-4.26602 127.424 -3.92632 123.978 -3.31952 120.575C-2.78109 117.112 -2.46614 113.536 -1.71436 110.114C-0.0685813 103.333 1.42477 96.4583 4.02551 89.8829C8.68209 76.4564 15.3614 63.8431 23.8257 52.4917C32.2202 40.8769 42.3246 30.6401 53.785 22.1398C76.6582 4.76819 104.123 -5.2801 132.66 -6.71773L137.933 -7.07845C140.361 -7.17121 141.489 -6.996 143.327 -6.96508L153.355 -6.57344C156.707 -6.37762 159.958 -6.47038 163.371 -6.03752L173.642 -4.54311L183.862 -2.95594C187.225 -2.36849 190.435 -1.36878 193.717 -0.606116C200.188 1.16656 206.802 2.35178 212.938 4.90774C237.98 13.5547 260.767 26.2623 279.399 41.9278C298.031 57.5933 313.818 74.5575 325.379 92.4285C336.074 108.46 344.593 125.88 350.706 144.217C352.06 148.299 353.354 152.243 354.587 156.049C355.724 159.893 356.375 163.727 357.238 167.324C358.853 174.539 360.286 181.217 360.672 187.37C361.281 193.481 362.043 198.903 362.308 203.633C362.308 208.395 362.308 212.435 362.368 215.712C362.368 222.236 362.368 225.719 362.368 225.719H360.987C360.987 225.719 360.631 222.277 359.971 215.815C359.656 212.6 359.28 208.601 358.833 203.984C358.183 199.356 356.984 194.089 355.897 188.194C355.013 182.258 353.053 175.909 350.96 169.014C349.944 165.572 349.07 161.913 347.739 158.265C346.408 154.617 344.844 150.937 343.31 147.072C340.618 139.219 336.199 131.613 332.033 123.316C330.103 119.101 327.126 115.35 324.637 111.196C321.935 107.187 319.69 102.745 316.409 98.8287C304.848 82.2459 289.304 66.6422 271.261 52.6051C266.568 49.3277 262.118 45.5762 257.039 42.5565L241.8 33.2809L225.464 25.3863C219.968 22.7273 214.015 21.037 208.194 18.7697C202.535 16.2652 196.439 15.08 190.344 13.3383C187.296 12.5756 184.248 11.5656 181.201 10.9884L171.925 9.48371L162.589 7.93778C159.43 7.4843 155.996 7.44308 152.704 7.18542L142.698 6.54643C141.194 6.48459 138.979 6.23724 138.055 6.31969L133.25 6.51551C107.065 7.20582 81.6819 15.8194 60.3579 31.2505C49.5959 38.9157 40.0631 48.2182 32.0952 58.8301C23.9698 69.2373 17.4982 80.8692 12.9147 93.3046C10.3546 99.3852 8.85109 105.785 7.19515 112.103C6.43322 115.267 6.11829 118.442 5.54938 121.595C4.90523 124.804 4.5314 128.062 4.4319 131.335C2.93232 143.926 4.3231 156.698 8.49555 168.654C16.4806 192.214 35.59 210.075 56.7616 217.753C61.9595 219.676 67.3433 221.037 72.8232 221.813C75.4137 222.39 78.431 222.287 81.1739 222.555C83.7985 222.705 86.4304 222.653 89.0473 222.401C99.2179 221.341 108.877 217.35 116.883 210.899C132.234 198.315 138.979 178.609 136.287 162.758C135.456 159.122 133.882 155.702 131.667 152.721C129.451 149.741 126.644 147.265 123.426 145.454C120.074 143.596 116.368 142.488 112.558 142.206C108.748 141.924 104.922 142.474 101.34 143.819C97.7571 145.164 94.5004 147.273 91.7893 150.003C89.0782 152.733 86.9757 156.021 85.6236 159.646C84.7668 161.879 84.2098 164.219 83.9677 166.603C83.8661 168.283 83.8153 169.148 83.8153 169.148L82.4235 169.097Z" fill="white"/>
<path d="M130.507 169.159C130.507 173.976 129.098 178.685 126.46 182.69C123.822 186.695 120.072 189.817 115.685 191.66C111.298 193.503 106.471 193.984 101.814 193.044C97.1566 192.103 92.8791 189.783 89.5222 186.376C86.1653 182.969 83.8798 178.628 82.9547 173.904C82.0295 169.179 82.5064 164.282 84.3249 159.832C86.1434 155.382 89.2219 151.579 93.171 148.904C97.1201 146.23 101.762 144.803 106.511 144.805C112.876 144.808 118.979 147.375 123.479 151.942C127.979 156.509 130.507 162.701 130.507 169.159V169.159Z" fill="white"/>
</g>
<defs>
<clipPath id="clip0_7_2">
<rect width="360" height="224.799" fill="white"/>
</clipPath>
</defs>
</svg>
