<svg width="116" height="81" viewBox="0 0 116 81" fill="none" xmlns="http://www.w3.org/2000/svg">
<path d="M65.6406 57H67.8203V72.5391L67.6328 75H65.6406V57ZM76.3867 68.5547V68.8008C76.3867 69.7227 76.2773 70.5781 76.0586 71.3672C75.8398 72.1484 75.5195 72.8281 75.0977 73.4062C74.6758 73.9844 74.1602 74.4336 73.5508 74.7539C72.9414 75.0742 72.2422 75.2344 71.4531 75.2344C70.6484 75.2344 69.9414 75.0977 69.332 74.8242C68.7305 74.543 68.2227 74.1406 67.8086 73.6172C67.3945 73.0938 67.0625 72.4609 66.8125 71.7188C66.5703 70.9766 66.4023 70.1406 66.3086 69.2109V68.1328C66.4023 67.1953 66.5703 66.3555 66.8125 65.6133C67.0625 64.8711 67.3945 64.2383 67.8086 63.7148C68.2227 63.1836 68.7305 62.7812 69.332 62.5078C69.9336 62.2266 70.6328 62.0859 71.4297 62.0859C72.2266 62.0859 72.9336 62.2422 73.5508 62.5547C74.168 62.8594 74.6836 63.2969 75.0977 63.8672C75.5195 64.4375 75.8398 65.1211 76.0586 65.918C76.2773 66.707 76.3867 67.5859 76.3867 68.5547ZM74.207 68.8008V68.5547C74.207 67.9219 74.1484 67.3281 74.0312 66.7734C73.9141 66.2109 73.7266 65.7188 73.4688 65.2969C73.2109 64.8672 72.8711 64.5312 72.4492 64.2891C72.0273 64.0391 71.5078 63.9141 70.8906 63.9141C70.3438 63.9141 69.8672 64.0078 69.4609 64.1953C69.0625 64.3828 68.7227 64.6367 68.4414 64.957C68.1602 65.2695 67.9297 65.6289 67.75 66.0352C67.5781 66.4336 67.4492 66.8477 67.3633 67.2773V70.1016C67.4883 70.6484 67.6914 71.1758 67.9727 71.6836C68.2617 72.1836 68.6445 72.5938 69.1211 72.9141C69.6055 73.2344 70.2031 73.3945 70.9141 73.3945C71.5 73.3945 72 73.2773 72.4141 73.043C72.8359 72.8008 73.1758 72.4688 73.4336 72.0469C73.6992 71.625 73.8945 71.1367 74.0195 70.582C74.1445 70.0273 74.207 69.4336 74.207 68.8008ZM86.6055 72.832V66.3047C86.6055 65.8047 86.5039 65.3711 86.3008 65.0039C86.1055 64.6289 85.8086 64.3398 85.4102 64.1367C85.0117 63.9336 84.5195 63.832 83.9336 63.832C83.3867 63.832 82.9062 63.9258 82.4922 64.1133C82.0859 64.3008 81.7656 64.5469 81.5312 64.8516C81.3047 65.1562 81.1914 65.4844 81.1914 65.8359H79.0234C79.0234 65.3828 79.1406 64.9336 79.375 64.4883C79.6094 64.043 79.9453 63.6406 80.3828 63.2812C80.8281 62.9141 81.3594 62.625 81.9766 62.4141C82.6016 62.1953 83.2969 62.0859 84.0625 62.0859C84.9844 62.0859 85.7969 62.2422 86.5 62.5547C87.2109 62.8672 87.7656 63.3398 88.1641 63.9727C88.5703 64.5977 88.7734 65.3828 88.7734 66.3281V72.2344C88.7734 72.6562 88.8086 73.1055 88.8789 73.582C88.957 74.0586 89.0703 74.4688 89.2188 74.8125V75H86.957C86.8477 74.75 86.7617 74.418 86.6992 74.0039C86.6367 73.582 86.6055 73.1914 86.6055 72.832ZM86.9805 67.3125L87.0039 68.8359H84.8125C84.1953 68.8359 83.6445 68.8867 83.1602 68.9883C82.6758 69.082 82.2695 69.2266 81.9414 69.4219C81.6133 69.6172 81.3633 69.8633 81.1914 70.1602C81.0195 70.4492 80.9336 70.7891 80.9336 71.1797C80.9336 71.5781 81.0234 71.9414 81.2031 72.2695C81.3828 72.5977 81.6523 72.8594 82.0117 73.0547C82.3789 73.2422 82.8281 73.3359 83.3594 73.3359C84.0234 73.3359 84.6094 73.1953 85.1172 72.9141C85.625 72.6328 86.0273 72.2891 86.3242 71.8828C86.6289 71.4766 86.793 71.082 86.8164 70.6992L87.7422 71.7422C87.6875 72.0703 87.5391 72.4336 87.2969 72.832C87.0547 73.2305 86.7305 73.6133 86.3242 73.9805C85.9258 74.3398 85.4492 74.6406 84.8945 74.8828C84.3477 75.1172 83.7305 75.2344 83.043 75.2344C82.1836 75.2344 81.4297 75.0664 80.7812 74.7305C80.1406 74.3945 79.6406 73.9453 79.2812 73.3828C78.9297 72.8125 78.7539 72.1758 78.7539 71.4727C78.7539 70.793 78.8867 70.1953 79.1523 69.6797C79.418 69.1562 79.8008 68.7227 80.3008 68.3789C80.8008 68.0273 81.4023 67.7617 82.1055 67.582C82.8086 67.4023 83.5938 67.3125 84.4609 67.3125H86.9805ZM94.3516 65.0273V75H92.1836V62.3203H94.2344L94.3516 65.0273ZM93.8359 68.1797L92.9336 68.1445C92.9414 67.2773 93.0703 66.4766 93.3203 65.7422C93.5703 65 93.9219 64.3555 94.375 63.8086C94.8281 63.2617 95.3672 62.8398 95.9922 62.543C96.625 62.2383 97.3242 62.0859 98.0898 62.0859C98.7148 62.0859 99.2773 62.1719 99.7773 62.3438C100.277 62.5078 100.703 62.7734 101.055 63.1406C101.414 63.5078 101.688 63.9844 101.875 64.5703C102.062 65.1484 102.156 65.8555 102.156 66.6914V75H99.9766V66.668C99.9766 66.0039 99.8789 65.4727 99.6836 65.0742C99.4883 64.668 99.2031 64.375 98.8281 64.1953C98.4531 64.0078 97.9922 63.9141 97.4453 63.9141C96.9062 63.9141 96.4141 64.0273 95.9688 64.2539C95.5312 64.4805 95.1523 64.793 94.832 65.1914C94.5195 65.5898 94.2734 66.0469 94.0938 66.5625C93.9219 67.0703 93.8359 67.6094 93.8359 68.1797ZM107.629 57V75H105.449V57H107.629ZM115.375 62.3203L109.844 68.2383L106.75 71.4492L106.574 69.1406L108.789 66.4922L112.727 62.3203H115.375ZM113.395 75L108.871 68.9531L109.996 67.0195L115.949 75H113.395Z" fill="black"/>
<path d="M40.5345 47.4172L25.4429 24.6408V47.4203H15.9774V14.876H15.0886C11.2431 14.876 9.46854 17.2945 9.46854 20.0849C9.46854 21.9774 10.7111 23.5162 13.0177 24.6408L8.57973 31.4459C6.10685 30.7461 3.93035 29.2574 2.38155 27.2065C0.832745 25.1557 -0.00353345 22.6549 1.1222e-05 20.0849C1.1222e-05 10.5559 7.63348 6 15.6207 6H25.4429L40.5345 27.2065V6H50V47.4172H40.5345Z" fill="black"/>
<path d="M66.9902 47.4883C64.8906 47.4883 63.0107 47.1546 61.3506 46.4873C59.6904 45.82 58.2826 44.9004 57.127 43.7285C55.9876 42.5404 55.1169 41.1732 54.5146 39.627C53.9124 38.0807 53.6113 36.4287 53.6113 34.6709V33.7432C53.6113 31.7738 53.888 29.959 54.4414 28.2988C54.9948 26.6387 55.8005 25.1982 56.8584 23.9775C57.9326 22.7406 59.251 21.7884 60.8135 21.1211C62.376 20.4375 64.1582 20.0957 66.1602 20.0957C68.0319 20.0957 69.7002 20.4049 71.165 21.0234C72.6299 21.6257 73.8669 22.4964 74.876 23.6357C75.8851 24.7588 76.6501 26.1178 77.1709 27.7129C77.708 29.2917 77.9766 31.0658 77.9766 33.0352V36.1602H56.6875V31.2529H70.5059V30.667C70.5059 29.7393 70.335 28.9255 69.9932 28.2256C69.6676 27.5257 69.1794 26.9886 68.5283 26.6143C67.8936 26.2236 67.0879 26.0283 66.1113 26.0283C65.1836 26.0283 64.4105 26.2236 63.792 26.6143C63.1735 27.0049 62.6771 27.5583 62.3027 28.2744C61.9447 28.9743 61.6842 29.7962 61.5215 30.7402C61.3587 31.668 61.2773 32.6689 61.2773 33.7432V34.6709C61.2773 35.6963 61.4157 36.6322 61.6924 37.4785C61.9691 38.3249 62.376 39.0492 62.9131 39.6514C63.4502 40.2536 64.1012 40.7256 64.8662 41.0674C65.6312 41.4092 66.502 41.5801 67.4785 41.5801C68.6829 41.5801 69.8304 41.3522 70.9209 40.8965C72.0114 40.4245 72.9554 39.6921 73.7529 38.6992L77.3174 42.7764C76.7803 43.5576 76.0234 44.3145 75.0469 45.0469C74.0866 45.763 72.931 46.349 71.5801 46.8047C70.2292 47.2604 68.6992 47.4883 66.9902 47.4883ZM89.4756 39.6514L94.6514 20.584H99.4609L97.8252 29.0801L92.6494 47H88.7188L89.4756 39.6514ZM87.1074 20.584L90.5742 39.5781L90.9404 47H86.2529L79.7588 20.584H87.1074ZM104.148 39.2119L107.591 20.584H114.939L108.494 47H103.807L104.148 39.2119ZM100.047 20.584L105.271 39.5537L106.028 47H102.049L96.9219 29.1045L95.3594 20.584H100.047Z" fill="black"/>
</svg>
