<?xml version="1.0" encoding="UTF-8"?> <svg xmlns="http://www.w3.org/2000/svg" viewBox="0 0 967.33 228.65"> <title>NS-Logo-Hrznt</title> <g id="Layer_2" data-name="Layer 2"> <g id="Слой_1" data-name="Слой 1"> <rect x="610.21" y="6.47" width="137.08" height="137.08" style="fill:#f39200"></rect> <rect x="747.29" y="6.47" width="219.33" height="219.33" style="fill:#d90912"></rect> <rect x="692.46" y="170.97" width="54.83" height="54.83" style="fill:#388838"></rect> <rect x="692.46" y="143.53" width="27.42" height="27.42" style="fill:#85c8b5"></rect> <rect x="719.88" y="143.53" width="27.41" height="27.42" style="fill:#44a49f"></rect> <rect x="610.21" y="143.56" width="82.25" height="82.25" style="fill:#004c69"></rect> <path d="M691.77,170.94a27.79,27.79,0,0,1,1.64-9.71,28.36,28.36,0,0,1,20.2-18.12A28.78,28.78,0,0,1,748.11,164c3.38,16.71-3.25,37.53-19.35,51.21a57.93,57.93,0,0,1-29.81,13,56.39,56.39,0,0,1-8.67.39c-2.8-.19-5.46,0-8.44-.52a83.42,83.42,0,0,1-17.4-3.84,85.54,85.54,0,0,1-52.83-51,88.29,88.29,0,0,1-5.24-39.38,63.43,63.43,0,0,1,1-10c.53-3.36.84-6.83,1.58-10.15,1.62-6.58,3.09-13.25,5.65-19.63A133.68,133.68,0,0,1,634.09,57.8a136.37,136.37,0,0,1,29.49-29.45,141.24,141.24,0,0,1,77.64-28L746.41,0c2.39-.09,3.5.08,5.31.11l9.87.38c3.3.19,6.5.1,9.86.52l10.11,1.45L791.62,4c3.31.57,6.47,1.54,9.7,2.28,6.37,1.72,12.88,2.87,18.92,5.35,24.65,8.39,47.08,20.72,65.42,35.92s33.88,31.66,45.26,49a209.24,209.24,0,0,1,24.93,50.25q2,5.94,3.82,11.48c1.12,3.73,1.76,7.45,2.61,10.94,1.59,7,3,13.48,3.38,19.45.6,5.93,1.35,11.19,1.61,15.78,0,4.62,0,8.54.06,11.72,0,6.33,0,9.71,0,9.71h-1.36s-.35-3.34-1-9.61c-.31-3.12-.68-7-1.12-11.48-.64-4.49-1.82-9.6-2.89-15.32-.87-5.76-2.8-11.92-4.86-18.61-1-3.34-1.86-6.89-3.17-10.43s-2.85-7.11-4.36-10.86c-2.65-7.62-7-15-11.1-23.05-1.9-4.09-4.83-7.73-7.28-11.76-2.66-3.89-4.87-8.2-8.1-12-11.38-16.09-26.68-31.23-44.44-44.85-4.62-3.18-9-6.82-14-9.75l-15-9-16.08-7.66c-5.41-2.58-11.27-4.22-17-6.42C810,22.65,804,21.5,798,19.81c-3-.74-6-1.72-9-2.28l-9.13-1.46-9.19-1.5c-3.11-.44-6.49-.48-9.73-.73l-9.85-.62c-1.48-.06-3.66-.3-4.57-.22l-4.73.19a129.34,129.34,0,0,0-71.75,24,125.94,125.94,0,0,0-27.82,26.76A123.59,123.59,0,0,0,623.35,97.4c-2.52,5.9-4,12.11-5.63,18.24-.75,3.07-1.06,6.15-1.62,9.21A56,56,0,0,0,615,134.3a79.81,79.81,0,0,0,4,36.21c7.86,22.86,26.67,40.19,47.51,47.64a77.33,77.33,0,0,0,15.81,3.94c2.55.56,5.52.46,8.22.72a51.49,51.49,0,0,0,7.75-.15,52.72,52.72,0,0,0,27.4-11.16c15.11-12.21,21.75-31.33,19.1-46.71A25.88,25.88,0,0,0,732.13,148a26.3,26.3,0,0,0-37.21,13.77,25.94,25.94,0,0,0-1.63,6.75c-.1,1.63-.15,2.47-.15,2.47Z" style="fill:#fff"></path> <path d="M739.1,171a23.63,23.63,0,1,1-23.62-23.63A23.63,23.63,0,0,1,739.1,171Z" style="fill:#fff"></path> <path d="M134.08,88.29H84.16v55.19H52.85V35.83H49.91c-12.72,0-18.59,8-18.59,17.23,0,6.26,4.11,11.35,11.74,15.07L28.38,90.64A39,39,0,0,1,0,53.06C0,21.54,25.25,6.47,51.67,6.47H84.16V58.93h49.92V6.47h31.31v137H134.08Z" style="fill:#1d1d1b"></path> <path d="M230.22,53.06c30.15,0,48.94,20,48.94,46.38s-18.79,46.39-48.94,46.39-48.93-20-48.93-46.39S200.08,53.06,230.22,53.06Zm0,65.37c10,0,17.62-7.05,17.62-19,0-11.35-7.83-19-17.62-19-9.39,0-17.61,7-17.61,19C212.61,110.6,220.24,118.43,230.22,118.43Z" style="fill:#1d1d1b"></path> <path d="M292.12,55.41c7.63-.2,22.9-1.18,37.77-1.18,26.62,0,41.69,7.24,41.69,23.49,0,11-8.22,18-15.46,19.18v.39c10.76,3.13,17.42,10.38,17.42,19.77,0,18.2-14.09,27.6-43.45,27.6-11,0-29.95-1.18-38-1.18Zm29.36,22.9V90.64h9.78c4.5,0,9.2-1.76,9.2-6.66,0-3.33-2.74-6.26-7.83-6.26C328.91,77.72,322.65,78.11,321.48,78.31Zm0,29.94v12.14c2.15.19,7.82.78,11.94.78,5.48,0,9-2.94,9-6.26,0-4.11-4.11-6.66-11.55-6.66Z" style="fill:#1d1d1b"></path> <path d="M391.72,61.67c7-4.31,20.36-8.61,32.69-8.61,26.82,0,36.6,13.5,36.6,37.38v53H435.57v-8c-4.31,6.07-13.51,9.2-23.1,9.2-15.85,0-27.79-10-27.79-27.8,0-20,14.29-29.16,31.71-29.16,7.83,0,14.48,2.74,17.22,4.89.59-10.57-4.31-15.07-12.13-15.07-10.38,0-17,3.33-22.51,5.48Zm41.89,54v-5.48c-2.74-2-6.26-2.94-11.16-2.94s-8.41,2.35-8.41,6.66c0,3.91,3.52,6.26,8.41,6.26C428.33,120.19,431.85,118,433.61,115.69Z" style="fill:#1d1d1b"></path> <path d="M555.38,55.41v88.07H526V121h-7l-13.9,22.51H471.6l20.95-29c-6.27-3.33-14.68-11.16-14.68-26,0-18,13.5-33.07,47.17-33.07Zm-34.65,44H526V80.85h-5.68c-7.05,0-11.16,5.29-11.16,10S514.27,99.44,520.73,99.44Z" style="fill:#1d1d1b"></path> <path d="M292.07,182.86h5.09v37.19h15.9V182.86h5.1v37.19h15.9V182.86h5.1v42H292.07Z" style="fill:#1d1d1b"></path> <path d="M363,182.86h5.1v42H363Zm12,19.73,19.68,22.26h-6.54l-19-21.9,18.42-20.09h6.18Z" style="fill:#1d1d1b"></path> <path d="M429.18,182.26c12.18,0,21.42,8.82,21.42,21.59,0,12.48-9.24,21.6-21.42,21.6s-21.42-8.82-21.42-21.6C407.76,191.68,416.7,182.26,429.18,182.26Zm0,38.39c9.6,0,16-7.32,16-16.8,0-9.77-7-16.8-16-16.8s-16,7-16,16.8C413.16,213.39,420.18,220.65,429.18,220.65Zm0-21.06,4.26,4.26-4.26,4.2-4.26-4.2Z" style="fill:#1d1d1b"></path> <path d="M496.63,187.66H481.39l-.72,7.92c-2.46,26.69-8.1,30.11-14.7,29.27l.06-5.1c3,.3,8-1.2,10-28.49l.6-8.4h25.14v42h-5.1Z" style="fill:#1d1d1b"></path> <path d="M539.53,182.62h4.38L562,224.85h-5.46l-5.4-12.72H532l-5.34,12.72h-5.16ZM534,207.33h15.12l-7.56-17.94Z" style="fill:#1d1d1b"></path> </g> </g> </svg> 