<svg width="113" height="71" viewBox="0 0 113 71" fill="none" xmlns="http://www.w3.org/2000/svg">
<path d="M44.7586 2.01465H2.2457V44.5275H44.7586V2.01465Z" fill="#F39200"/>
<path d="M112.78 2.01465H44.7585V70.0359H112.78V2.01465Z" fill="#D90912"/>
<path d="M44.7586 53.0313H27.754V70.0359H44.7586V53.0313Z" fill="#388838"/>
<path d="M36.2578 44.5213H27.754V53.0251H36.2578V44.5213Z" fill="#85C8B5"/>
<path d="M44.7585 44.5213H36.2578V53.0251H44.7585V44.5213Z" fill="#44A49F"/>
<path d="M27.7541 44.5306H2.2457V70.039H27.7541V44.5306Z" fill="#004C69"/>
<path d="M27.5401 53.022C27.529 51.996 27.7012 50.9762 28.0487 50.0106C28.54 48.625 29.3709 47.3846 30.4652 46.4029C31.5596 45.4212 32.8826 44.7295 34.3133 44.3911C36.59 43.8534 38.9867 44.2311 40.9878 45.4427C42.9888 46.6543 44.4342 48.6031 45.0129 50.8697C46.0611 56.052 44.005 62.509 39.0118 66.7516C36.3783 68.9507 33.1702 70.3497 29.7668 70.7833C28.875 70.8926 27.976 70.9331 27.078 70.9042C26.2096 70.8453 25.3846 70.9042 24.4605 70.743C22.6243 70.5398 20.8152 70.1406 19.0641 69.5521C15.3302 68.2975 11.9225 66.2271 9.0885 63.4912C6.25449 60.7554 4.06529 57.4228 2.67987 53.7353C1.21742 49.8407 0.661657 45.6639 1.05478 41.5223C1.07597 40.482 1.17968 39.445 1.36492 38.421C1.52929 37.379 1.62543 36.3028 1.85493 35.2732C2.35734 33.2325 2.81323 31.1639 3.60716 29.1853C5.0287 25.1451 7.06773 21.3495 9.65165 17.9337C12.2143 14.4386 15.2989 11.3582 18.7974 8.80031C25.78 3.57291 34.1643 0.549221 42.8761 0.116615L44.4857 0.00806862C45.2269 -0.0198433 45.5711 0.0328792 46.1325 0.0421831L49.1935 0.160033C50.2169 0.218958 51.2093 0.191046 52.2514 0.321302L55.3868 0.770993L58.5067 1.2486C59.5333 1.42537 60.5133 1.7262 61.515 1.9557C63.4906 2.48912 65.5095 2.84578 67.3827 3.6149C75.0275 6.21691 81.9837 10.0408 87.6715 14.7548C93.3594 19.4689 98.1788 24.5736 101.708 29.9513C104.973 34.7755 107.574 40.0173 109.44 45.5354C109.853 46.7636 110.248 47.9503 110.624 49.0958C110.972 50.2526 111.17 51.4062 111.434 52.4886C111.927 54.6595 112.364 56.6692 112.482 58.5207C112.668 60.3598 112.901 61.991 112.981 63.4146C112.981 64.8474 112.981 66.0631 113 67.0493C113 69.0124 113 70.0607 113 70.0607H112.578C112.578 70.0607 112.47 69.0248 112.268 67.0803C112.172 66.1127 112.057 64.9094 111.921 63.52C111.722 62.1275 111.356 60.5427 111.024 58.7688C110.755 56.9824 110.156 55.072 109.517 52.9972C109.207 51.9614 108.94 50.8604 108.534 49.7625C108.128 48.6647 107.65 47.5575 107.182 46.3945C106.36 44.0313 105.011 41.7425 103.739 39.246C103.15 37.9775 102.242 36.8486 101.482 35.5988C100.657 34.3924 99.9714 33.0557 98.9697 31.8772C95.4404 26.8872 90.6953 22.1918 85.1874 17.9678C83.7546 16.9816 82.3962 15.8527 80.8455 14.944L76.1936 12.1528L71.2066 9.77723C69.5288 8.97709 67.7115 8.46847 65.9344 7.78618C64.207 7.03256 62.3462 6.67591 60.4854 6.15178C59.555 5.92229 58.6246 5.61836 57.6942 5.44468L54.8627 4.99189L52.0126 4.52669C51.0481 4.39023 49.9998 4.37783 48.995 4.3003L45.9402 4.10801C45.4812 4.08941 44.8051 4.01497 44.5229 4.03978L43.056 4.09871C35.0626 4.30643 27.3136 6.8984 20.804 11.5419C17.5186 13.8485 14.6085 16.6477 12.1761 19.841C9.69564 22.9727 7.72002 26.4729 6.32082 30.2149C5.53929 32.0447 5.08029 33.9706 4.57477 35.8717C4.34217 36.8238 4.24604 37.779 4.07236 38.728C3.87572 39.6935 3.7616 40.674 3.73122 41.6588C3.27344 45.4477 3.69801 49.2911 4.97175 52.8887C7.40939 59.9783 13.243 65.3529 19.7061 67.6634C21.2929 68.2422 22.9364 68.6518 24.6093 68.8853C25.4001 69.059 26.3212 69.0279 27.1586 69.1086C27.9598 69.1535 28.7632 69.1379 29.5621 69.0621C32.6669 68.7431 35.6156 67.5421 38.0597 65.601C42.7458 61.8143 44.8051 55.8845 43.9832 51.1147C43.7296 50.0203 43.2491 48.9914 42.5728 48.0944C41.8965 47.1975 41.0394 46.4524 40.057 45.9076C39.0337 45.3484 37.9023 45.015 36.7392 44.9302C35.5761 44.8453 34.4084 45.0108 33.3147 45.4155C32.221 45.8202 31.2268 46.4548 30.3992 47.2764C29.5716 48.0979 28.9297 49.0874 28.517 50.1781C28.2554 50.8501 28.0854 51.5542 28.0114 52.2715C27.9804 52.777 27.9649 53.0375 27.9649 53.0375L27.5401 53.022Z" fill="white"/>
<path d="M42.2186 53.0406C42.2186 54.4902 41.7887 55.9072 40.9833 57.1124C40.1779 58.3176 39.0332 59.2569 37.6939 59.8115C36.3547 60.3661 34.881 60.511 33.4593 60.228C32.0377 59.945 30.7319 59.2467 29.7071 58.2215C28.6823 57.1963 27.9846 55.8902 27.7022 54.4684C27.4198 53.0467 27.5654 51.5731 28.1205 50.234C28.6756 48.895 29.6154 47.7507 30.821 46.9458C32.0266 46.1409 33.4437 45.7116 34.8933 45.7122C36.8364 45.713 38.6996 46.4855 40.0733 47.8598C41.4469 49.234 42.2186 51.0976 42.2186 53.0406V53.0406Z" fill="white"/>
</svg>
